<svg id="Layer_1" data-name="Layer 1" xmlns="http://www.w3.org/2000/svg" viewBox="0 0 170 93.34"><defs><style>.cls-1,.cls-2{fill: #ffffff;}.cls-2{stroke:#010101;stroke-linecap:round;stroke-linejoin:round;stroke-width:16.21px;}</style></defs><title>bbb</title><path class="cls-1" d="M196.15,306.7h0a5,5,0,0,0,2.9-4.3c0-3.9-3-5.5-6-5.5H184c-.6,0-.8.2-.8.8v1.1c0,.6.3.8.9.8.9,0,1.3.3,1.3,1v14c0,.8-.3,1-1.3,1-.7,0-.9.2-.9.8v1.1c0,.5.2.8.8.8h8.8c3.9,0,7.5-1.5,7.5-6C200.25,308.4,197.75,307.3,196.15,306.7Zm-7.3-7.1h3.3a3.23,3.23,0,0,1,3.4,2.9c0,1.9-1.3,3.2-3.6,3.2h-3.1Zm3.5,15.9h-3.5v-7.2h3.3c2.8,0,4.6,1.4,4.6,3.6C196.75,313.7,194.75,315.5,192.35,315.5Z" transform="translate(-183.15 -247.06)"/><path class="cls-1" d="M227.25,296.9h-6.2c-.7,0-.8.2-.8.8v1.1c0,.6.3.8.9.8.9,0,1.3.3,1.3,1v10c0,3.4-1.4,5.3-4.6,5.3-2.8,0-4.6-2.3-4.6-5.3v-10c0-.8.3-1,1.3-1s1.2-.2,1.2-.9v-1.1c0-.4-.3-.6-1-.6H208c-.6,0-.8.1-.8.6v1.2c0,.6.3.8,1.4.8.8,0,1.2.3,1.2,1v11c0,5,4.1,7,8.1,7,4.7,0,7.9-2.5,7.9-7v-11c0-.8.4-1,1.4-1,.7,0,.9-.2.9-.8v-1.1C228.05,297.1,227.85,296.9,227.25,296.9Z" transform="translate(-183.15 -247.06)"/><path class="cls-1" d="M251.35,313.5c-3.1,0-2.2,2.4-6.1,2.4-4.5,0-6.2-5-6.2-8.1,0-3.8,1.5-8.5,5.9-8.5,2.8,0,2.4,2,5.5,2,1,0,1.3-.1,1.3-.5,0-.6-.3-1.6-.4-2.5-.3-1.2-2.4-1.6-5.7-1.6-7,0-10.5,5.9-10.5,11.2,0,6.9,4.4,10.8,9.7,10.8,4.3,0,6.5-.9,6.9-1.8a6.93,6.93,0,0,0,.8-2.5C252.55,313.7,252.25,313.5,251.35,313.5Z" transform="translate(-183.15 -247.06)"/><path class="cls-1" d="M270.75,305.6l3.9-4.6a5,5,0,0,1,2.6-1.8c.3,0,.4-.2.4-.6v-1.1a.53.53,0,0,0-.6-.6h-6c-1.1,0-1.3.2-1.3.7v1.1a.58.58,0,0,0,.6.6.74.74,0,0,1,.8.8.91.91,0,0,1-.3.7l-5.3,6.2v-6.5c0-.8.3-.9,1.1-.9s1.1-.3,1.1-1v-.9c0-.4-.2-.6-.8-.6h-6.1c-.7,0-1,.2-1,.7v1c0,.6.2.8,1,.8s1.1.3,1.1.9v13.8c0,1.1-.3,1.3-1.1,1.3s-1.1.2-1.1,1.1v.7c0,.5.2.7,1,.7h6.5c.5,0,.8-.2.8-.7v-.9c0-.8-.3-.9-1.1-.9-1,0-1.4-.5-1.4-1.3v-3.2l2.4-2.9,7.1,9.6c.8,1,1,1.3,1.3,1.3s1.8-.9,1.8-1.3-.2-.5-.6-1.2Z" transform="translate(-183.15 -247.06)"/><path class="cls-1" d="M301.15,313.6c-2.5,0-.8,1.8-5.4,1.8h-4.6v-7h4c2.4,0,1.5,1,3.6,1,1.4,0,1.6-.1,1.6-.4a19.53,19.53,0,0,0-1.1-3.4c-.3-.7-.4-.8-1.3-.8-2.2,0-1,.9-2.8.9h-3.9v-6.1h3.8c3.3,0,2.4,1.7,5,1.7.9,0,1.3-.4,1.3-.8a25.13,25.13,0,0,0-.9-2.9c-.2-.4-.4-.6-.8-.6h-13.3c-.6,0-.8.2-.8.8v1.1c0,.6.3.8.9.8,1.1,0,1.4.3,1.4,1v14c0,.8-.3,1-1.4,1-.7,0-.9.2-.9.8v1.1c0,.5.2.8.8.8h12.8c1.9,0,2.3-.2,2.5-.9a21.5,21.5,0,0,0,1.2-3C302.65,313.8,302.45,313.6,301.15,313.6Z" transform="translate(-183.15 -247.06)"/><path class="cls-1" d="M327.75,296.9h-6.3c-.6,0-.8.2-.8.8v1c0,.4.3.8,1,.8.5,0,1,.3,1,.7a2.28,2.28,0,0,1-.3,1.1l-3.1,6.6h-.1l-3.2-6.6a3.74,3.74,0,0,1-.4-1.1c0-.5.3-.7,1-.7s1-.2,1-.8v-1.1c0-.5-.2-.7-.9-.7h-6.8c-.7,0-.9.2-.9.7v1.1c0,.5.4.8,1.1.8s1.2.4,1.7,1.3l5.7,10.4v.1l-1.3,2.8a4.39,4.39,0,0,0-.7,2.2v1.1c0,.6.3.8.9.8h5.3c.7,0,1-.2,1-.8v-.9c0-.6-.3-.8-1.1-.8-1,0-1.8-.3-1.8-1.1a5.79,5.79,0,0,1,.7-2.1l5.8-11.7a2.06,2.06,0,0,1,1.7-1.3c.6,0,.8-.2.8-.6v-1.3C328.65,297.1,328.45,296.9,327.75,296.9Z" transform="translate(-183.15 -247.06)"/><path class="cls-1" d="M351.55,313.6c-2.5,0-.8,1.8-5.4,1.8h-4.6v-7h4c2.4,0,1.5,1,3.6,1,1.4,0,1.6-.1,1.6-.4a19.53,19.53,0,0,0-1.1-3.4c-.3-.7-.4-.8-1.3-.8-2.2,0-1,.9-2.8.9h-3.9v-6.1h3.8c3.3,0,2.4,1.7,5,1.7.9,0,1.3-.4,1.3-.8a25.13,25.13,0,0,0-.9-2.9c-.2-.4-.4-.6-.8-.6h-13.3c-.6,0-.8.2-.8.8v1.1c0,.6.3.8.9.8,1.1,0,1.4.3,1.4,1v14c0,.8-.3,1-1.4,1-.7,0-.9.2-.9.8v1.1c0,.5.2.8.8.8h12.7c1.9,0,2.3-.2,2.5-.9a21.5,21.5,0,0,0,1.2-3C353.15,313.8,353,313.6,351.55,313.6Z" transform="translate(-183.15 -247.06)"/><path class="cls-1" d="M199,331.6a1.11,1.11,0,0,1,1.1-1.1h3.4a3.74,3.74,0,0,1,2.5.8,2.36,2.36,0,0,1,.7,1.6h0a2.28,2.28,0,0,1-1.3,2.1,2.35,2.35,0,0,1,1.8,2.3h0c0,1.8-1.4,2.6-3.6,2.6h-3.5a1.11,1.11,0,0,1-1.1-1.1Zm4,2.8c.9,0,1.5-.3,1.5-1h0c0-.6-.5-1-1.4-1H201v2Zm.5,3.8c.9,0,1.5-.3,1.5-1h0c0-.7-.5-1-1.6-1H201v2.1h2.5Z" transform="translate(-183.15 -247.06)"/><path class="cls-1" d="M209.45,339v-7.5a1.11,1.11,0,0,1,1.1-1.1h5.3a.9.9,0,0,1,0,1.8h-4.3v1.9h3.6a.9.9,0,1,1,0,1.8h-3.6v2h4.3a.9.9,0,0,1,0,1.8h-5.4C210,340.1,209.45,339.6,209.45,339Z" transform="translate(-183.15 -247.06)"/><path class="cls-1" d="M219.25,331.6a1.11,1.11,0,0,1,1.1-1.1h2.7a4.8,4.8,0,0,1,5.1,4.7h0a4.82,4.82,0,0,1-5.1,4.8h-2.7a1.11,1.11,0,0,1-1.1-1.1Zm3.7,6.6a2.78,2.78,0,0,0,2.9-2.9h0a2.78,2.78,0,0,0-2.9-2.9h-1.6v5.8Z" transform="translate(-183.15 -247.06)"/><path class="cls-1" d="M241.55,339.9l-.8-.8a4.11,4.11,0,0,1-2.8,1.1,2.9,2.9,0,0,1-3.2-2.8h0a2.76,2.76,0,0,1,1.9-2.6,3.2,3.2,0,0,1-.7-1.9h0a2.65,2.65,0,0,1,2.9-2.5,2.51,2.51,0,0,1,2.7,2.4h0c0,1.3-.8,2-2,2.5l1.3,1.2c.2-.3.4-.7.6-1a1,1,0,0,1,.8-.5.9.9,0,0,1,.9.9c0,.2,0,.3-.1.4-.3.5-.6,1-.9,1.4l.9.9a.91.91,0,0,1,.3.7.9.9,0,0,1-.9.9A1.08,1.08,0,0,1,241.55,339.9Zm-2-2-1.8-1.8a1.33,1.33,0,0,0-.9,1.3h0a1.16,1.16,0,0,0,1.3,1.1A2.38,2.38,0,0,0,239.55,337.9Zm0-5h0a.84.84,0,0,0-.9-.9c-.6,0-.9.4-.9,1h0a1.93,1.93,0,0,0,.6,1.2C239.15,333.9,239.55,333.5,239.55,332.9Z" transform="translate(-183.15 -247.06)"/><path class="cls-1" d="M250.25,331.6a1.11,1.11,0,0,1,1.1-1.1h3.4a3.56,3.56,0,0,1,2.5.8,2.36,2.36,0,0,1,.7,1.6h0a2.28,2.28,0,0,1-1.3,2.1,2.35,2.35,0,0,1,1.8,2.3h0c0,1.8-1.4,2.6-3.6,2.6h-3.5a1.11,1.11,0,0,1-1.1-1.1Zm4,2.8c.9,0,1.5-.3,1.5-1h0c0-.6-.5-1-1.4-1h-2.1v2Zm.6,3.8c.9,0,1.5-.3,1.5-1h0c0-.7-.5-1-1.6-1h-2.4v2.1h2.5Z" transform="translate(-183.15 -247.06)"/><path class="cls-1" d="M260.85,331.6a1.11,1.11,0,0,1,1.1-1.1h3.3a3.56,3.56,0,0,1,2.8,1,3.11,3.11,0,0,1,.8,2.2h0a3,3,0,0,1-1.9,2.9l1.5,1.8a1.33,1.33,0,0,1,.3.8,1,1,0,0,1-1,1,1.1,1.1,0,0,1-1-.5l-2.1-2.6H263v2.1a1.1,1.1,0,0,1-2.2,0v-7.6Zm4.2,3.6c1,0,1.6-.5,1.6-1.3h0c0-.9-.6-1.4-1.6-1.4H263v2.8l2.1-.1Z" transform="translate(-183.15 -247.06)"/><path class="cls-1" d="M271.35,339v-7.5a1.11,1.11,0,0,1,1.1-1.1h5.3a.9.9,0,1,1,0,1.8h-4.3v1.9h3.6a.9.9,0,0,1,0,1.8h-3.6v2h4.3a.9.9,0,1,1,0,1.8h-5.4C271.75,340.1,271.35,339.6,271.35,339Z" transform="translate(-183.15 -247.06)"/><path class="cls-1" d="M280.55,338.7l3.3-7.5a1.21,1.21,0,0,1,1.2-.8h.1a1.21,1.21,0,0,1,1.2.8l3.3,7.5a.76.76,0,0,1,.1.4.94.94,0,0,1-1,1,1.09,1.09,0,0,1-1-.7l-.6-1.5H283l-.7,1.6a1.09,1.09,0,0,1-1,.7,1,1,0,0,1-1-1A1.33,1.33,0,0,0,280.55,338.7Zm5.9-2.6-1.3-3.2-1.3,3.2Z" transform="translate(-183.15 -247.06)"/><path class="cls-1" d="M291.85,331.5a1.1,1.1,0,0,1,2.2,0v3.2l3.9-3.9a1.09,1.09,0,0,1,.9-.4,1,1,0,0,1,1,1,1.23,1.23,0,0,1-.4.8l-2.7,2.5,2.9,3.7a.91.91,0,0,1,.3.7,1,1,0,0,1-1.1,1,1.05,1.05,0,0,1-.9-.5l-2.8-3.6-1.2,1.1V339a1.1,1.1,0,1,1-2.2,0l.1-7.5Z" transform="translate(-183.15 -247.06)"/><path class="cls-1" d="M302.05,331.6a1.11,1.11,0,0,1,1.1-1.1h5.4a1,1,0,0,1,0,2h-4.4v2h3.7a1,1,0,0,1,0,2h-3.7v2.8a1.1,1.1,0,1,1-2.2,0l.1-7.7Z" transform="translate(-183.15 -247.06)"/><path class="cls-1" d="M310.15,338.7l3.3-7.5a1.21,1.21,0,0,1,1.2-.8h.1a1.21,1.21,0,0,1,1.2.8l3.3,7.5a.76.76,0,0,1,.1.4.94.94,0,0,1-1,1,1.09,1.09,0,0,1-1-.7l-.7-1.5h-4.2l-.7,1.6a1.09,1.09,0,0,1-1,.7,1,1,0,0,1-1-1A.89.89,0,0,0,310.15,338.7Zm5.9-2.6-1.3-3.2-1.3,3.2Z" transform="translate(-183.15 -247.06)"/><path class="cls-1" d="M321.55,339.1a1.23,1.23,0,0,1-.4-.8,1,1,0,0,1,1-1,.85.85,0,0,1,.6.2,4.17,4.17,0,0,0,2.4.9c.9,0,1.4-.3,1.4-.9h0c0-.5-.3-.8-1.9-1.2-1.9-.5-3.2-1-3.2-2.9h0a3,3,0,0,1,3.3-2.9,5.57,5.57,0,0,1,3,.8,1,1,0,0,1,.5.8,1,1,0,0,1-1,1,.76.76,0,0,1-.5-.2,4,4,0,0,0-2-.7c-.8,0-1.2.4-1.2.8h0c0,.6.4.8,2.1,1.3,1.9.5,3,1.2,3,2.9h0c0,1.9-1.5,3-3.5,3A6.38,6.38,0,0,1,321.55,339.1Z" transform="translate(-183.15 -247.06)"/><path class="cls-1" d="M333.15,332.5h-2a1,1,0,0,1,0-2h6.2a1,1,0,0,1,0,2h-2v6.7a1.1,1.1,0,1,1-2.2,0v-6.7Z" transform="translate(-183.15 -247.06)"/><path class="cls-1" d="M298.75,256.9h-61.1a1.8,1.8,0,0,1,0-3.6h61.2a1.79,1.79,0,0,1,1.8,1.8A2,2,0,0,1,298.75,256.9Z" transform="translate(-183.15 -247.06)"/><path class="cls-1" d="M225.55,263.2a1.88,1.88,0,0,1-.8-.2l-11.3-6.3a1.7,1.7,0,0,1,0-3l11.3-6.4a1.78,1.78,0,0,1,2.4.6l3.8,6.3a1.91,1.91,0,0,1,0,1.8l-3.8,6.3A1.92,1.92,0,0,1,225.55,263.2Zm-7.7-8,7.1,4,2.4-4-2.4-4Z" transform="translate(-183.15 -247.06)"/><path class="cls-1" d="M322,262.7h-10.1a1.91,1.91,0,0,1-1.4-.7l-4.5-5.8a1.66,1.66,0,0,1,0-2.1l4.5-5.8a1.75,1.75,0,0,1,1.4-.7H322a1.78,1.78,0,0,1,1.6,1,1.68,1.68,0,0,1-.2,1.8l-3.7,4.7,3.6,4.7a1.59,1.59,0,0,1,.4,1.2A1.63,1.63,0,0,1,322,262.7Zm-9.3-3.5h5.7l-2.3-3a1.66,1.66,0,0,1,0-2.1l2.3-3h-5.7l-3.2,4.1Z" transform="translate(-183.15 -247.06)"/><path class="cls-2" d="M245.55,291.2" transform="translate(-183.15 -247.06)"/><path class="cls-2" d="M260.85,273.3" transform="translate(-183.15 -247.06)"/><path class="cls-1" d="M291.35,285.4a1.27,1.27,0,0,1-.6-.1l-46.2-16.1a1.74,1.74,0,0,1,1.1-3.3l46.2,16.1a1.75,1.75,0,0,1,1.1,2.2A1.71,1.71,0,0,1,291.35,285.4Z" transform="translate(-183.15 -247.06)"/><path class="cls-1" d="M245.05,285.4a2,2,0,0,1-1.7-1.2,1.75,1.75,0,0,1,1.1-2.2l46.2-16.1a1.74,1.74,0,0,1,1.1,3.3l-46.1,16.1A1.27,1.27,0,0,1,245.05,285.4Z" transform="translate(-183.15 -247.06)"/><path class="cls-1" d="M268.25,268.8a1.79,1.79,0,0,1-1.8-1.8v-4.5a1.8,1.8,0,0,1,3.6,0V267A1.93,1.93,0,0,1,268.25,268.8Z" transform="translate(-183.15 -247.06)"/></svg>
